<svg xmlns="http://www.w3.org/2000/svg" viewBox="0 0 32 32"><path d="M16,1A15,15,0,1,0,31,16,15,15,0,0,0,16,1Zm.71,21.42-2.29,2.29A1,1,0,0,1,13,23.29l.58-.58h-.45A6.15,6.15,0,0,1,7,16.57V15.43a6.15,6.15,0,0,1,6.14-6.14,1,1,0,0,1,0,2A4.14,4.14,0,0,0,9,15.43v1.14a4.14,4.14,0,0,0,4.14,4.14h.45L13,20.14a1,1,0,0,1,0-1.42,1,1,0,0,1,1.41,0L16.71,21s0,0,0,0a1,1,0,0,1,.17.27,1,1,0,0,1,0,.77.9.9,0,0,1-.17.26S16.73,22.4,16.71,22.42ZM25,16.57a6.15,6.15,0,0,1-6.14,6.14,1,1,0,0,1,0-2A4.14,4.14,0,0,0,23,16.57V15.43a4.14,4.14,0,0,0-4.14-4.14h-.45l.58.57a1,1,0,0,1-1.41,1.42L15.29,11s0,0,0-.06a.9.9,0,0,1-.17-.26,1,1,0,0,1,0-.77.9.9,0,0,1,.17-.26l0-.06,2.29-2.29a1,1,0,0,1,1.41,0,1,1,0,0,1,0,1.42l-.58.58h.45A6.15,6.15,0,0,1,25,15.43Z"/></svg>